Coordinates
version=1
nRows=29
nColumns=24
inDegrees=yes

Units are S.I. units (second, meters, Newtons, ...)
Angles are in degrees.

endheader
time	pelvis_tilt	pelvis_list	pelvis_rotation	pelvis_tx	pelvis_ty	pelvis_tz	hip_flexion_r	hip_adduction_r	hip_rotation_r	knee_angle_r	ankle_angle_r	subtalar_angle_r	mtp_angle_r	hip_flexion_l	hip_adduction_l	hip_rotation_l	knee_angle_l	ankle_angle_l	subtalar_angle_l	mtp_angle_l	lumbar_extension	lumbar_bending	lumbar_rotation
      1.37883333	      2.18885620	      7.86242268	     -3.84547809	      0.28484436	      1.02249379	      0.23338250	     12.58814865	     -8.48496039	      0.56269123	    -66.64603475	      4.36580823	    -18.32149220	     -1.65725273	      5.42182855	     12.06008874	      0.75691961	     -8.75149036	     -0.99035662	    -17.72320762	      7.56547208	     -4.03141938	     -9.71944912	      5.86870876
      1.38300000	      2.16953115	      7.75090924	     -3.73262022	      0.28966977	      1.02318593	      0.23319994	     13.06678225	     -8.28875723	      0.54772886	    -66.21478372	      4.59514998	    -18.14435657	     -1.71878132	      4.94537295	     11.97825659	      0.95335158	     -8.42243601	     -0.94221339	    -17.75330072	      7.47996058	     -4.06601738	     -9.61223807	      5.62462196
      1.38716667	      2.12410456	      7.62511249	     -3.62138533	      0.29448391	      1.02381083	      0.23304607	     13.56168747	     -8.06895791	      0.54147998	    -65.73088995	      4.80327914	    -17.98138507	     -1.73673992	      4.51069641	     11.87019558	      1.09586221	     -8.11841869	     -0.88900848	    -17.70313957	      7.44369424	     -4.06935958	     -9.48345877	      5.48925183
      1.39133333	      2.10960894	      7.52026500	     -3.50392379	      0.29927609	      1.02443285	      0.23287904	     14.01473795	     -7.88764343	      0.51920062	    -65.20665296	      5.02838312	    -17.73870146	     -1.75434629	      4.03897655	     11.78912316	      1.28217152	     -7.80282325	     -0.82820262	    -17.70056120	      7.39450211	     -4.11275078	     -9.38618036	      5.24883018
      1.39550000	      2.09563946	      7.43683147	     -3.38752281	      0.30406653	      1.02498467	      0.23269165	     14.46620215	     -7.74216052	      0.48918239	    -64.65609031	      5.23702906	    -17.49950352	     -1.77854867	      3.55666227	     11.73364049	      1.49921243	     -7.46044265	     -0.76705776	    -17.76378628	      7.30982348	     -4.15132142	     -9.30141315	      4.91463300
      1.39966667	      2.09695770	      7.33062885	     -3.26735830	      0.30884563	      1.02556027	      0.23252862	     14.87677613	     -7.56805638	      0.45639005	    -64.03777408	      5.42619319	    -17.27974100	     -1.79227458	      3.06626359	     11.64750016	      1.69341332	     -7.13632029	     -0.71283545	    -17.77855623	      7.22680892	     -4.21190619	     -9.19900820	      4.67046706
      1.40383333	      2.07644193	      7.23694351	     -3.14655117	      0.31361496	      1.02604768	      0.23236845	     15.30617101	     -7.41033009	      0.42585546	    -63.38759011	      5.61280400	    -17.04921065	     -1.79681746	      2.60579140	     11.57081340	      1.87932999	     -6.81921053	     -0.65839665	    -17.79128058	      7.14056304	     -4.24523160	     -9.10738530	      4.41937832
      1.40800000	      2.02681115	      7.13387593	     -3.02547038	      0.31837515	      1.02645363	      0.23222662	     15.75533957	     -7.23784612	      0.40040310	    -62.69255121	      5.77688567	    -16.85508697	     -1.79266447	      2.19337553	     11.47559301	      2.01977522	     -6.53309177	     -0.59940269	    -17.74663041	      7.10084886	     -4.24215902	     -9.00313589	      4.26993836
      1.41216667	      2.02740595	      7.06342853	     -2.90219769	      0.32311670	      1.02686361	      0.23206190	     16.14648364	     -7.12256601	      0.35527930	    -61.97565248	      5.95469169	    -16.60855554	     -1.78137898	      1.71219013	     11.42266204	      2.23094874	     -6.21300790	     -0.51925517	    -17.78862425	      7.01999178	     -4.30369926	     -8.93965106	      3.92769937
      1.41633333	      2.01934691	      6.97512263	     -2.77870787	      0.32784568	      1.02725070	      0.23191861	     16.52777630	     -6.98075436	      0.31766644	    -61.20228904	      6.10333556	    -16.41761249	     -1.76367543	      1.24798463	     11.34450520	      2.42439814	     -5.90528392	     -0.46767642	    -17.80347970	      6.93062148	     -4.36176410	     -8.85325189	      3.66771041
      1.42050000	      1.97573653	      6.88483452	     -2.65672662	      0.33258710	      1.02754350	      0.23178429	     16.93539384	     -6.83681365	      0.28205469	    -60.38942311	      6.23624592	    -16.24193420	     -1.75126440	      0.84077443	     11.25650718	      2.55576095	     -5.63379374	     -0.39395781	    -17.75705291	      6.89379323	     -4.35987418	     -8.76105842	      3.52474847
      1.42466667	      1.97751015	      6.83088750	     -2.53234900	      0.33729695	      1.02782310	      0.23163543	     17.29464219	     -6.75007372	      0.23226139	    -59.56436220	      6.37767332	    -16.04122481	     -1.72406608	      0.37186596	     11.21306888	      2.76124945	     -5.33087918	     -0.30558629	    -17.79113127	      6.81413713	     -4.42314225	     -8.71519949	      3.17445411
      1.42883333	      1.94019403	      6.74210970	     -2.41137241	      0.34201298	      1.02805363	      0.23152395	     17.67010217	     -6.61137158	      0.19809325	    -58.67370762	      6.48620529	    -15.90223155	     -1.70921182	     -0.03420336	     11.12152459	      2.89651962	     -5.06878990	     -0.23409164	    -17.74176259	      6.77944049	     -4.43847243	     -8.62271392	      3.03301966
      1.43300000	      1.94468627	      6.69430884	     -2.28857043	      0.34671235	      1.02825402	      0.23138377	     18.00304323	     -6.53868651	      0.14564455	    -57.77838778	      6.59171204	    -15.74801706	     -1.67773426	     -0.49608788	     11.07972190	      3.09059299	     -4.78180962	     -0.13354849	    -17.77217542	      6.70588699	     -4.50218953	     -8.58223495	      2.68722856
      1.43716667	      1.89526043	      6.62680862	     -2.17131785	      0.35141214	      1.02836069	      0.23127783	     18.37632440	     -6.43069718	      0.11619629	    -56.83409729	      6.68559393	    -15.62828028	     -1.65976943	     -0.87899481	     11.00741823	      3.22405613	     -4.53358525	     -0.05451738	    -17.72869327	      6.66976774	     -4.50546234	     -8.51686204	      2.53714852
      1.44133333	      1.90028705	      6.57711131	     -2.05214954	      0.35610372	      1.02850093	      0.23115851	     18.68004288	     -6.35809544	      0.06705940	    -55.86271799	      6.74918739	    -15.53081350	     -1.62413787	     -1.33408621	     10.95784237	      3.41333624	     -4.25847349	      0.05268657	    -17.74502621	      6.59571246	     -4.57466964	     -8.47304812	      2.20113000
      1.44550000	      1.84603269	      6.53446639	     -1.95281524	      0.36081715	      1.02850342	      0.23107947	     19.04664269	     -6.28344156	      0.04689529	    -54.87462987	      6.82460106	    -15.43058458	     -1.61069948	     -1.71310263	     10.90874071	      3.52816453	     -4.00104373	      0.14962727	    -17.68122968	      6.57250511	     -4.56799931	     -8.42295181	      2.09236205
      1.44966667	      1.82193154	      6.48058563	     -1.82885039	      0.36550354	      1.02853384	      0.23096523	     19.34829490	     -6.20924624	     -0.00167013	    -53.82560268	      6.86463546	    -15.34891227	     -1.59051214	     -2.10438449	     10.84833540	      3.67190139	     -3.79122977	      0.25564744	    -17.66329945	      6.53500775	     -4.59494710	     -8.37439112	      1.86064608
      1.45383333	      1.83014024	      6.45739669	     -1.72623715	      0.37019024	      1.02853618	      0.23087466	     19.62172623	     -6.17272881	     -0.03818420	    -52.77788471	      6.88332005	    -15.31176169	     -1.55348666	     -2.55219498	     10.82233640	      3.84038668	     -3.53105728	      0.37260672	    -17.67597650	      6.46548317	     -4.66510370	     -8.36406853	      1.51946196
      1.45800000	      1.76647273	      6.41216468	     -1.62227242	      0.37491532	      1.02843673	      0.23078987	     19.94727366	     -6.10727101	     -0.06959776	    -51.67968416	      6.90439510	    -15.24218020	     -1.53515502	     -2.89991695	     10.76710570	      3.95349212	     -3.32052508	      0.47950086	    -17.63369789	      6.43311443	     -4.64170994	     -8.31426047	      1.38860742
      1.46216667	      1.73301853	      6.39336639	     -1.52568856	      0.37962559	      1.02831378	      0.23071146	     20.23789680	     -6.07744168	     -0.10001075	    -50.57055820	      6.90021016	    -15.20056825	     -1.51564230	     -3.28105413	     10.74069829	      4.07897515	     -3.10534463	      0.60367212	    -17.59982749	      6.39831867	     -4.65334438	     -8.29507741	      1.19645502
      1.46633333	      1.73045771	      6.37202173	     -1.43428980	      0.38434404	      1.02820678	      0.23063978	     20.47901461	     -6.04886895	     -0.13559420	    -49.42968047	      6.85889689	    -15.21413362	     -1.48309159	     -3.70320529	     10.71173209	      4.22202175	     -2.87662784	      0.74226777	    -17.58781634	      6.33906738	     -4.70571328	     -8.28137470	      0.91043662
      1.47050000	      1.66550902	      6.34918456	     -1.34532747	      0.38908355	      1.02797856	      0.23056974	     20.77351917	     -6.01763678	     -0.16423153	    -48.26007734	      6.83765745	    -15.15699699	     -1.46371918	     -4.03879266	     10.67851587	      4.33067062	     -2.68701054	      0.86134101	    -17.55173236	      6.30568052	     -4.67632371	     -8.25294658	      0.77605203
      1.47466667	      1.61700428	      6.33701496	     -1.26239587	      0.39382867	      1.02773496	      0.23051428	     21.04150412	     -6.00237080	     -0.20033575	    -47.07274133	      6.78763066	    -15.12787989	     -1.44684566	     -4.39568293	     10.65600022	      4.44387769	     -2.48996187	      1.00041025	    -17.51608353	      6.27622429	     -4.67292860	     -8.23880776	      0.61857997
      1.47883333	      1.57562210	      6.32774487	     -1.18476663	      0.39857824	      1.02746631	      0.23046178	     21.28701022	     -5.99152086	     -0.23375272	    -45.85739346	      6.72028144	    -15.11112169	     -1.42993348	     -4.75582765	     10.63646244	      4.55737496	     -2.30305889	      1.14324276	    -17.48636198	      6.24624781	     -4.67316134	     -8.22953987	      0.44522690
      1.48300000	      1.53923636	      6.31428947	     -1.10993196	      0.40334321	      1.02718912	      0.23040795	     21.50816579	     -5.97961119	     -0.27361622	    -44.60762886	      6.63287616	    -15.09917865	     -1.41249371	     -5.11943161	     10.61248114	      4.67042090	     -2.12188498	      1.28816971	    -17.45887790	      6.21551582	     -4.67506720	     -8.21196849	      0.27217768
      1.48716667	      1.48237561	      6.31662449	     -1.04347882	      0.40812193	      1.02682817	      0.23037762	     21.74670923	     -5.98327884	     -0.30629806	    -43.35029383	      6.54113930	    -15.07931053	     -1.39540007	     -5.45685324	     10.60409727	      4.78213842	     -1.94978438	      1.43964503	    -17.43636326	      6.18652988	     -4.64841043	     -8.21323836	      0.11380211
      1.49133333	      1.46031217	      6.32132525	     -0.98260389	      0.41288495	      1.02648913	      0.23036914	     21.93141719	     -5.98668061	     -0.33210508	    -42.06237697	      6.41295680	    -15.11991328	     -1.36186401	     -5.83304455	     10.59745352	      4.91975314	     -1.77540185	      1.59728030	    -17.42667400	      6.13208019	     -4.67683408	     -8.22236238	     -0.12062542
      1.49550000	      1.38528769	      6.32952830	     -0.92479124	      0.41769373	      1.02604414	      0.23033844	     22.16497181	     -6.00532678	     -0.38648761	    -40.76412962	      6.31632610	    -15.03226235	     -1.34291338	     -6.14130102	     10.59554133	      5.00928139	     -1.62425179	      1.74738247	    -17.40873088	      6.10321941	     -4.61716929	     -8.22102145	     -0.21595849
